<mxfile host="app.diagrams.net" modified="2024-06-02T04:10:15.318Z" agent="Mozilla/5.0 (Windows NT 10.0; Win64; x64) AppleWebKit/537.36 (KHTML, like Gecko) Chrome/125.0.0.0 Safari/537.36" etag="oHbIijErAOkWFMC-Q7uM" version="24.4.13" type="github">
  <diagram name="Page-1" id="G4QHDkVZ1rukZl5vNHl-">
    <mxGraphModel dx="928" dy="1727" grid="1" gridSize="10" guides="1" tooltips="1" connect="1" arrows="1" fold="1" page="1" pageScale="1" pageWidth="827" pageHeight="1169" math="0" shadow="0">
      <root>
        <mxCell id="0" />
        <mxCell id="1" parent="0" />
        <mxCell id="66kBm97SX3_s6F8QqALg-2" value="" style="html=1;verticalLabelPosition=bottom;align=center;labelBackgroundColor=#ffffff;verticalAlign=top;strokeWidth=2;strokeColor=#0080F0;shadow=0;dashed=0;shape=mxgraph.ios7.icons.user;" vertex="1" parent="1">
          <mxGeometry x="60" y="-740" width="70" height="70" as="geometry" />
        </mxCell>
        <mxCell id="66kBm97SX3_s6F8QqALg-3" value="&lt;b&gt;User(Me)&lt;/b&gt;" style="text;html=1;align=center;verticalAlign=middle;resizable=0;points=[];autosize=1;strokeColor=none;fillColor=none;" vertex="1" parent="1">
          <mxGeometry x="60" y="-670" width="70" height="30" as="geometry" />
        </mxCell>
        <mxCell id="66kBm97SX3_s6F8QqALg-4" value="&lt;font style=&quot;font-size: 36px;&quot;&gt;&lt;b&gt;2048-Game Flowchart&lt;/b&gt;&lt;/font&gt;" style="text;html=1;align=center;verticalAlign=middle;resizable=0;points=[];autosize=1;strokeColor=none;fillColor=none;" vertex="1" parent="1">
          <mxGeometry x="330" y="-960" width="400" height="60" as="geometry" />
        </mxCell>
        <mxCell id="66kBm97SX3_s6F8QqALg-17" style="edgeStyle=orthogonalEdgeStyle;rounded=0;orthogonalLoop=1;jettySize=auto;html=1;" edge="1" parent="1" source="66kBm97SX3_s6F8QqALg-6">
          <mxGeometry relative="1" as="geometry">
            <mxPoint x="410" y="-795" as="targetPoint" />
          </mxGeometry>
        </mxCell>
        <mxCell id="66kBm97SX3_s6F8QqALg-6" value="" style="image;sketch=0;aspect=fixed;html=1;points=[];align=center;fontSize=12;image=img/lib/mscae/VM_Linux.svg;" vertex="1" parent="1">
          <mxGeometry x="220" y="-820" width="54.35" height="50" as="geometry" />
        </mxCell>
        <mxCell id="66kBm97SX3_s6F8QqALg-10" style="edgeStyle=orthogonalEdgeStyle;rounded=0;orthogonalLoop=1;jettySize=auto;html=1;entryX=0;entryY=0.388;entryDx=0;entryDy=0;entryPerimeter=0;" edge="1" parent="1" source="66kBm97SX3_s6F8QqALg-2" target="66kBm97SX3_s6F8QqALg-6">
          <mxGeometry relative="1" as="geometry" />
        </mxCell>
        <mxCell id="66kBm97SX3_s6F8QqALg-11" value="&lt;b&gt;WSL ubuntu(cmd)&lt;/b&gt;" style="text;html=1;align=center;verticalAlign=middle;resizable=0;points=[];autosize=1;strokeColor=none;fillColor=none;" vertex="1" parent="1">
          <mxGeometry x="182.17000000000002" y="-770" width="130" height="30" as="geometry" />
        </mxCell>
        <mxCell id="66kBm97SX3_s6F8QqALg-12" value="" style="shape=image;html=1;verticalAlign=top;verticalLabelPosition=bottom;labelBackgroundColor=#ffffff;imageAspect=0;aspect=fixed;image=https://cdn1.iconfinder.com/data/icons/operating-system-flat-1/30/ubuntu-128.png" vertex="1" parent="1">
          <mxGeometry x="267.16999999999996" y="-840" width="40" height="40" as="geometry" />
        </mxCell>
        <mxCell id="66kBm97SX3_s6F8QqALg-20" value="" style="edgeStyle=orthogonalEdgeStyle;rounded=0;orthogonalLoop=1;jettySize=auto;html=1;" edge="1" parent="1" source="66kBm97SX3_s6F8QqALg-16" target="66kBm97SX3_s6F8QqALg-19">
          <mxGeometry relative="1" as="geometry" />
        </mxCell>
        <mxCell id="66kBm97SX3_s6F8QqALg-16" value="" style="shape=image;verticalLabelPosition=bottom;verticalAlign=top;imageAspect=0;aspect=fixed;image=data:image/jpeg,/9j/4AAQSkZJRgABAQAAAQABAAD/2wCEAAkGBxIHBhITBxASFhIXFRUXFBcWGBcZFRcZGBUYGBsYHRYdHSogGCAlGx8XIT0hMSkuOi4uFyEzOTY4NygtLjcBCgoKDg0OGxAQGy0lHyYtKysxNy4tLSszLS8tLS0tLTArLS0tLS0yMCstLS0tLy0tLS8wLi0tLy8vLS8vNy8tMP/AABEIAOEA4QMBEQACEQEDEQH/xAAbAAEAAwADAQAAAAAAAAAAAAAABQYHAgMEAf/EAEIQAAIBAgQCBgYIBAMJAAAAAAABAgMRBAUGMUFhEiEiUXGBUmJzkbGyBxMyNUKhs9EkNnLwIyY0FCVDY4KiwcLS/8QAGgEBAAIDAQAAAAAAAAAAAAAAAAQFAQIDBv/EADARAQACAQICCQIGAwEAAAAAAAABAgMEESExBRIiM1FxscHRYYEyNEGR4fATI/Gh/9oADAMBAAIRAxEAPwDcQAAAAAAAAAAAAAAAAAAAAAAAAAAAAAAAAAAAAAAAAAAAAAAAAAAAAAAAAAAAAAAAAAAAAAAAAAAAAAAAAAAAAAAAAAAAAAAAAAAAAAAAAAAAAAAAAAAAAAAAAAAAAAAAAAAAAAAAAAAAAAAAAAAAAAAAAAAAAAAAAAAAAAAAAAAAAAAAAAAAAAAAAAAAAeTG5nRwMksXVhFvZN9p/wDTudKYb3/DDlkzUx/inZ2YTGU8ZC+FnGS42fWvFboxfHek7WjZtTLS8b1nd3mjcAAAAAAAAAAAAAAAAAAAAAAAAAAAAArWrNUxyaH1eFtKu1twgu+XPkStPp5ycZ5Iuo1MY42jmzDEV5YmvKeIk5Tk7yb3bLSIiI2hUTMzO8prLsRKFGEqcmpW3TafU7bnbaLV2s4bzW29Z2WjLdWzpWWPj016UeqXu2f5EHLoKzxpOyfh6RtHDJG60YHMaWPhfCzT71tJeK3RXZMN8c7WhaYs1Msb1l6jk6gAAAAAAAAAAAAAAAAAAAAAAAAAqGr9XLLlKjlrTrbSluqf7y5cOPcTNPpuv2rcvVC1Oq6nZpz9GbTqOpNuo223dtu7bfFviWcRsqpnfm43MsJvAP8Ag4+fzM7V5ONubvuZauVOo6c06baa2admvMxMRMbSzFpid4WDLNV1KFljV9ZHv2mv/D/vrIOXQUtxpwn/AMT8PSN68L8Y/wDVxwuIji8PGdB3jJXTKm9Jpaa25rml63rFq8pdpq2AAAAAAAAAAAAAAAAAAAAAAKJrHWX1XSoZPLtbTqL8Pqxffz4cOvafp9Lv2r/srtTq9uxT9/hn17vrLFWvlwFwJzL/APRx8/iztXk4W5vQbNQABd9Dzcsrmnsqjt5xiym6Rj/ZE/Rd9GzM4pj6rEQFiAAAAAAAAAAAAB8nJQg3NpJK7b6kkuNxEbkzsjcJqDC4zE9DDV4OfBdav4N9T8jtfT5ax1prwcKanFeerW0bpM4u4AAAfG7LrAzrWOs/9o6VDJ5djadRby74xfBetx4dXW7LTaXbtX/ZV6nV79nHy8fhRiery4C4C4E5l7/go+fzM7V5OF+b0GzUAAXbQv3bU9o/liU3SPeR5e676M7ufP2hZSvWQAAAAAAAAAAAOuvWjh6Mp12lGKbk3skutszWs2naGLWisTM8mY6q1RLOJuGFvGguGznzly7o+b5Xel0kYo61vxeig1esnNPVrwr6+fwrl+4mIS6aZ1q6NqectuO0au8l/V3rn777lbqdDv2sf7fC00vSEx2cv7/K/wBOoqtNSpNOLV007pp8U+JVTExO0riJiY3hyMMuNSoqVNyqtKKTbbdkkt23wMxG/CGJmIjeWXay1g81cqOXNqhtKWzqftHlx49xa6bS9TtW5+io1Wq/ydmvL1/hUbkxCLgLgLgS+ndO1s+r2w66NNPt1GuyuS9KXL32OGbPXFHHn4O+HBbLPDl4pfNMBHK8fKjQbcYdFJvd3hGTb82yRprzfFFp/Xf1RtTSMeWax+m3pDyndwAAF40H92VPaP5YlN0l3keXvK86L7ufP2hZSuWQAAAAAAAAAAAIvU+CnmGQ1qeG+24pxXe4yUredreZ3014pli1uSPqsc3xWrXmx2cXTm1UTTTs0+pp9zXA9FG08YeamJjhLjcMFwJvTupauR1LR7dFvtQb273F/hf5P8yNqNLTNG/KfH5StNq74Z25x4fDSsHn2HxeWyr06qVOKvPpdThykuD+PC5S3wZKX6kxx9V7j1GO9OvE8PRmmrtWTzyr0MNeOHT6lxm/Sly7o+b69rPT6aMcbzzVep1U5Z2j8Pr5qzckohcBcBe24N100poeeP6NXN04Ut1Dac/HjBfm+W5Cz6uK9mnGU/T6Ob9q/CGmYehHC0Iww8VGEVaMUrJLwKuZmZ3lbVrFY2jkzrVT/wAw1vGH6cD0Gj7iv39Zec135i329IRNySiFwFwLzoL7sqe0fyxKbpLvI8veV50X3c+ftCzFcswAAAAAAAAAAAAK1qzS0c5h9ZhbRrpb/hmlwlz9Ym6XVzinq2419EHV6OM0davC3r5suxFGWGryhiIuM4u0ovdMvK2i0bxyUFqzWZrPCXC5lguB8fXFp7PfyMTG5EzDzVIdDwOc12da23cLmrcuB3YTDTxuIjTwkJTnLaMd3+y58DFrRWN55M1rNp2rG8tP0noiGWdGrmdp190t4U3y9KXPhw7yq1Grm/Zrwj1W+n0cU7V+M+i4kJOAM01W/wDMVbxh+nA9Dou4r9/WXmtd+Yv9vSETclIpcBcC9aB+7KntH8kSl6S7yPL3ledF93Pn7Qs5XLMAAAAAAAAAAAAABBao01Tz2heNo1kuxPv9WXevh705Wm1VsM+MImq0lc8eFvH5ZRj8HUy/FSp4yLjOO6+DT4p95fUvW9etWeDz2SlsduraNpee5u0LgLgdNSl6HuOdqeDpW/ikNP6fr5/iejg1aKfbqS+xH/6fqr8tyNmzVxR2krDgvlnavLxa5p7T1HIcPbCRvN/bqS+3Lz4LkinzZ7ZZ3ld4cFMUbVSxxdgABmeq/wCYq/jD9OB6LRdxX7+svM678xf7ekIklIoAAvegPuup7V/JEpek+8jy95XvRXdW8/aFnK1ZgAAAAAAAAAAAAAInUef0sgwXTxTvJ9UIL7U3y7l3vh7kdsOG2W20OObPXFXeWOZxnlbOMwdXGPlGK+zGPcv34l3hx1xRtVQ58ls1utb/AI6Yz6S6iVE7okxs+3MsFwFwLBpnVNXIp9F9ug31w4q+7i+D5bPluRNTpK5uPKf7zTNLrL4OHOvh8NSyvM6Wa4VVMDNSjx74vua4MosuK+O3VtD0GLNTLXrUnd7Dm6AADMtWfzHX8YfpwPR6LuK/f1l5jXfmL/b0hE3JSKXAXAvf0f8A3XU9q/kiUnSfeR5e8r3orureftC0FatAAAAAAAAAAAAAIHVep6WncN2+1Wkv8Omn1v1n6MefuJGDT2yz9EfUamuGOPPwY1meY1c1xsquOn0pv3JcIpcEu4uqY60r1aqLJktkt1rc3lubtHKE+g+ozE7MTG70wqKa6jrE7uExs5XNmC4C4HsyrNKuU4pVMBPoy4reMl3SXFf2jllxUy16todcWa+K3WpLVNMaqpZ7BRdoV0uuDe/OL/EuW6/MotTpL4ePOPH5eg0utpnjblbw+FgIiYAZhq3+Y6/jD9OB6PRdxX7+svMa78xf7ekIglIgAAvv0ffddT2r+SJSdJ95Hl7yvuiu6t5+0LSVq0AAAAAAAAAAABF6nzN5PkNatSScox7Ke3Sk1FX5JtPyOuDH/kyRWXHPk/x45tDCsZjKmOxUqmMm5zk7yk93+y5F/WsVjaI4PPWvNp61p3l03NmpcCU0/kNfP8V0MDHsr7c39iC5vi+W/wATjmzUxRvZ2w4L5Z2q1bLdEYTB5VKjUh05TXbqO3TvwcX+Cz2S87lVbWZJvFonbZcV0WKMc0mN9/1Z3qbTtTIMVap2qUn2KnB+q+6Xx4cbXOm1Nc1eHP8AWFFqtLbBbjxj9J/v6oa5JRS4C4H2E3TmnTbTTumnZp96fAxMb8JZiZid4aFpXXinalnrSe0auyf9fd/Vt323KnVdH7drF+3wudJ0lv2c37/PyvyfSV47FSuGYau/mSv4w/Tgek0P5ev39ZeX1/5m/wBvSERclIhcBcC/fR791VPav5IlH0p3keXvK+6J7q3n7QtJWrUAAAAAAAAAAAHnzDBQzHAzpYtXhOLjJePFdzW9+RtS80tFo5tb0i9ZrPKWKas0vV05iu3eVGT/AMOpb/tl3S+PDileafUVyx9VBqdNbDP08UBckIy4aQ0NUzno1cw6VPD7rhOp/Svwr1vd3kLUauuPs14z6J2m0Vsnatwj1a1gMDTy7CRp4GChCOyXxvu3z4lRe9rzvaeK6pStK9WsbQ9Bq2dGNwlPHYaVPFwUoSVmn/fU+ZtS9qW61Z2lpelb1mto3hkmrdK1MhrdKleeHb7MuMb7Rl+/Hx6j0Gl1dc0bTwt/eTzur0VsE7xxr6eau3JiEXAXAXAsultYVckahiL1KHo/ihzg38u3gQtVoq5uMcLevn8p2k118PZtxr6eXw7tQYyGYZxUq4SXShPoOL2/4cU+p7Waa8jtpaTTDWtucb+suGrvW+e1q8p29IR5IRgABf8A6PPuqp7V/JEo+lO9jy95X/RPdW8/aFqKxagAAAAAAAAAAAAdOMwkMdhZU8XBShJWlF7P++82raazvHNrasWjaeSt4D6P8DgsYqihOdneMZy6UE/C3X53JN9bltG26NTQ4a262y1ERLAAADrr0Y4ii4V4qUZK0k1dNPg0ZraazvDFqxaNp5Mq1lo+WTydXL05YfjxlT5Pvj63v73faTWxl7N/xerz2s0E4u3TjX0/hUrk9XFwFwFwJXBv+Fj5/FmWHfcywXAXAv8A9Hf3TU9q/kiUXSnex5e8vQdEd1bz9oWsrFqAAAAAAAAAAAAAAAAAAAAA+Sipxakk0+pp7MDMNa6KeA6VfKIt0t5011un60e+PLh4bXmj13X7GTn4+P8AKh13R80/2Y+X6x4fwo1yzVIAAl8G/wCFj5/FmWHdcBcBcDQvo6X+6Kj/AOa/kgUXSnex5e8vQdER/qnz9oWorFqAAAAAAAAAAAAAAAAAAAAAAAM61voi/SxGSR51KSXvlBf+vu7i40Wv5Y8n2n5+VNruj998mKPOPhnNy4UZcCXwX+lj5/FmWHcAuNhO5RpXEZlZyj9XT9Kas2uUN3+S5kLPrsWLhvvP0+U7T9H5svGY2j6/H/GjZXgIZZgY0sP9mK3e7b623zbKDNltlvN7fq9Hgw1w0ileUPWcnUAAAAAAAAAAAAAAAAAAAAAAAAKNrfRKzDpV8oilW3nBdSqc13S+PiWmj13U7GTl6fwqtb0fGTt4+fr/ACy2cXCbU0002mn1NNbprgXkTvxh5+YmJ2lLYNWw0V/fW+oy1WfKNIYjMLOuvqod812n4Q399iDn6QxY+EcZ+nysNP0bmy8bdmPrz/b5XbKNNYfKrOlDpT9OfXLy4R8kU+fW5c3CZ2jwhd6fQ4cPGI3nxn+8PsmCImAAAAAAAAAAAAAAAAAAAAAAAAAAAAIPN9J4TN6/TxVK1R7yi7N+K2l4tErDrcuKNqzw+qJn0WHNO9o4/R6Mq0/h8qd8JTXS9KXal5N7eVjGbV5c3C08GcGjw4eNI4+POUoRkoAAAAAAAAAAAAAAAAAAAAAAAAAAAAAAAAAAAAAAAAAAAAAAAAAAAAAAAAAAAAAAAAAAAAAAAAAAAAAAAAAAAAAAAAAAAAAAAAAAAAAAAAAAAAAAAAAAAAAAAAAAAAAAAAAAAAAAAAAAAAAAAAAAAAAAAAAAAAAAAAAAAAAAAAAAAAAAAAAAAAAAAAAAAAAAAAAAAAAAAAAAAAAAAAAAAAAP/9k=" vertex="1" parent="1">
          <mxGeometry x="410" y="-830" width="60" height="60" as="geometry" />
        </mxCell>
        <mxCell id="66kBm97SX3_s6F8QqALg-18" value="&lt;b&gt;VS Code&lt;/b&gt;" style="text;html=1;align=center;verticalAlign=middle;resizable=0;points=[];autosize=1;strokeColor=none;fillColor=none;" vertex="1" parent="1">
          <mxGeometry x="405" y="-780" width="70" height="30" as="geometry" />
        </mxCell>
        <mxCell id="66kBm97SX3_s6F8QqALg-28" value="" style="edgeStyle=orthogonalEdgeStyle;rounded=0;orthogonalLoop=1;jettySize=auto;html=1;" edge="1" parent="1" source="66kBm97SX3_s6F8QqALg-19" target="66kBm97SX3_s6F8QqALg-26">
          <mxGeometry relative="1" as="geometry" />
        </mxCell>
        <mxCell id="66kBm97SX3_s6F8QqALg-19" value="" style="image;sketch=0;aspect=fixed;html=1;points=[];align=center;fontSize=12;image=img/lib/mscae/Docker.svg;" vertex="1" parent="1">
          <mxGeometry x="540.15" y="-815.5" width="43.29" height="35.5" as="geometry" />
        </mxCell>
        <mxCell id="66kBm97SX3_s6F8QqALg-25" value="" style="image;sketch=0;aspect=fixed;html=1;points=[];align=center;fontSize=12;image=img/lib/mscae/Docker.svg;" vertex="1" parent="1">
          <mxGeometry x="623.15" y="-815.5" width="43.29" height="35.5" as="geometry" />
        </mxCell>
        <mxCell id="66kBm97SX3_s6F8QqALg-73" style="edgeStyle=orthogonalEdgeStyle;rounded=0;orthogonalLoop=1;jettySize=auto;html=1;" edge="1" parent="1" source="66kBm97SX3_s6F8QqALg-26" target="66kBm97SX3_s6F8QqALg-48">
          <mxGeometry relative="1" as="geometry" />
        </mxCell>
        <mxCell id="66kBm97SX3_s6F8QqALg-26" value="" style="image;sketch=0;aspect=fixed;html=1;points=[];align=center;fontSize=12;image=img/lib/mscae/Docker.svg;" vertex="1" parent="1">
          <mxGeometry x="703.15" y="-815.5" width="43.29" height="35.5" as="geometry" />
        </mxCell>
        <mxCell id="66kBm97SX3_s6F8QqALg-29" value="&lt;b&gt;&lt;font style=&quot;font-size: 10px;&quot;&gt;Docker file&lt;/font&gt;&lt;/b&gt;" style="text;html=1;align=center;verticalAlign=middle;resizable=0;points=[];autosize=1;strokeColor=none;fillColor=none;" vertex="1" parent="1">
          <mxGeometry x="526.8" y="-781" width="70" height="30" as="geometry" />
        </mxCell>
        <mxCell id="66kBm97SX3_s6F8QqALg-30" value="&lt;font style=&quot;font-size: 10px;&quot;&gt;&lt;b&gt;Docker image&lt;/b&gt;&lt;/font&gt;" style="text;html=1;align=center;verticalAlign=middle;resizable=0;points=[];autosize=1;strokeColor=none;fillColor=none;" vertex="1" parent="1">
          <mxGeometry x="597" y="-781" width="90" height="30" as="geometry" />
        </mxCell>
        <mxCell id="66kBm97SX3_s6F8QqALg-31" value="&lt;b&gt;&lt;font style=&quot;font-size: 10px;&quot;&gt;Docker Container&lt;/font&gt;&lt;/b&gt;" style="text;html=1;align=center;verticalAlign=middle;resizable=0;points=[];autosize=1;strokeColor=none;fillColor=none;" vertex="1" parent="1">
          <mxGeometry x="676" y="-781" width="110" height="30" as="geometry" />
        </mxCell>
        <mxCell id="66kBm97SX3_s6F8QqALg-32" value="" style="shape=image;html=1;verticalAlign=top;verticalLabelPosition=bottom;labelBackgroundColor=#ffffff;imageAspect=0;aspect=fixed;image=https://cdn3.iconfinder.com/data/icons/document-icons-2/30/647709-image-128.png" vertex="1" parent="1">
          <mxGeometry x="649.56" y="-841.5" width="26.44" height="26.44" as="geometry" />
        </mxCell>
        <mxCell id="66kBm97SX3_s6F8QqALg-33" value="&lt;font style=&quot;font-size: 9px;&quot;&gt;&lt;b&gt;build&lt;/b&gt;&lt;/font&gt;" style="text;html=1;align=center;verticalAlign=middle;resizable=0;points=[];autosize=1;strokeColor=none;fillColor=none;" vertex="1" parent="1">
          <mxGeometry x="583.44" y="-820" width="40" height="30" as="geometry" />
        </mxCell>
        <mxCell id="66kBm97SX3_s6F8QqALg-34" value="&lt;font style=&quot;font-size: 9px;&quot;&gt;&lt;b style=&quot;&quot;&gt;run&lt;/b&gt;&lt;/font&gt;" style="text;html=1;align=center;verticalAlign=middle;resizable=0;points=[];autosize=1;strokeColor=none;fillColor=none;" vertex="1" parent="1">
          <mxGeometry x="659" y="-821.5" width="40" height="30" as="geometry" />
        </mxCell>
        <mxCell id="66kBm97SX3_s6F8QqALg-36" value="" style="strokeWidth=2;html=1;shape=mxgraph.flowchart.document2;whiteSpace=wrap;size=0.25;" vertex="1" parent="1">
          <mxGeometry x="560" y="-839" width="30.15" height="18.09" as="geometry" />
        </mxCell>
        <mxCell id="66kBm97SX3_s6F8QqALg-37" value="&amp;lt;/&amp;gt;" style="rounded=1;arcSize=5;fillColor=#0065FF;strokeColor=none;fontColor=#ffffff;align=center;verticalAlign=middle;whiteSpace=wrap;fontSize=10;fontStyle=1;html=1;sketch=0;" vertex="1" parent="1">
          <mxGeometry x="730" y="-841.5" width="24" height="24" as="geometry" />
        </mxCell>
        <mxCell id="66kBm97SX3_s6F8QqALg-48" value="" style="shape=image;verticalLabelPosition=bottom;labelBackgroundColor=default;verticalAlign=top;aspect=fixed;imageAspect=0;image=data:image/png,iVBORw0KGgoAAAANSUhEUgAAAOEAAADhCAMAAAAJbSJIAAAA5FBMVEX////7eiTJYh3MzMz8lVD8l1L7eybI0dTGYR3+eyT7cADGWADGVwD7eCD7cgDJYRv7dRXvdCLYaR/pcSHIXhTHWwj7dBDQZR7gbSDTZx79+vf0dyP9vZv/8+zlbyH8rH/u0cHUhln9rHj8kEX7gTH9w6T8pnb+1sDpxbHQeEP57ufcnHnjspf04dbiq47PyMP+z7X7hTf9s4z+28f+5df8mF3owaz8nGTeo4Pw18nMbTDn5+f8n2nRfk3+4M/9sIfqnXLVwLTYk3LOcTbhZQDSXQDfqpHRe0f8jEr9upzUhVjXjmd9cWlZAAARNklEQVR4nO1dbVvaShOGVGnCJiRAEiCIxoqivFhfUXmKbfW0x1P+//95sgkgwsxkwya19OL+0OtqG5a5d3ZnNztzL7ncFltsscUWW2yxxRZbbLFFRmhdfLrd2TTcfrpoCfLz9o6O3tvctXB0tOeJELzZ3Ux+HEe7NwIE39tKScRS9Hbf20RJ7MYN1L3NHaIRjvZogq2I4O5mIqJIR9QLznB357Jd2Dy0L3c4x6MLkuGnkJ9h5DcRhhFy/EQyvN3ZPSpsJj8Oo3C0u3NLMgyc/N5WSiKYZjEMC+9toiQKMQx3Lzd3iEYwLndpH246wYAi7cONdyF3Ismw/RcwbJMMN3ilmMEokAzzfwHDPMlwQ3czizCMLcNNx5bhluGfjy3DLcM/HxkxNCy3VAxRcl1r3W4KWpk1s34rGTA0rGLx6GDv4vqm2+3edI6vvhSKpcT2GVap2P4SttLq3lxf7J0cFYvrsEybYWBY++p6+RS2dfHFKiVpyipZX1YSK971VXuNrkqVoVFqHyDH6F7nzrUEW7Gsuw5i0M1B201oU4oMA37H1Bn6zYEQR8v6SiUbWsftRMMhRYaWS/Lj6J4U4xo0iidxaT/vWHQ0pMrQKJ2IJOseX1yyGfdFIB+W807E3ZgWQ6uNzZxlXBFuNEoxeZQ5Om1RN6bE0L0VzSjnctfo0YhVeBRupXVLD4aUGRYPhC3jxl3C/W+9iHdTgIPi72MoPLam8Hag/nfpBMMq9kq/i2HpOKFpuRwwxNy7xK0ci1BMgWExoQc5vJflgWrdCtVNvMWewECVZ+gmmoNzikun6cblGgSDuRgfbqQZWklnzxTdN5svw0oUZF5xG7toyDI02mualrtYHGFF0dV0Ga3YvIMsw9K6puVyJ6/dv95ID9GJizaSDK2TtU3LefPuX3MSRjiJGadyDA1XwrTcxaz7JQZC0FExb1NyDNdYCRfxErUek8OMQ8yqKMXQaMu4MNihRsGmKL4bheDRwUaKoaQLc7kjQ8SFcd14TC6KMgxpFw5O75+eeud+l3imw51YvKZa6T+Nz8aTe59YlOgVQ4ahRcT44b+MORy6efiAPsUHGBVIh2eM2RyOrvTwrjqgwqkMwxL6Ov4wYrapRDBt/RA17srKu+i2dvCs28oMpsPOsQdvqFgjwRAvATjXTWURjuPjtrlYPw0X+IUc9UPM29QwlWBoXSEf6unKEkz9FH7Uu7ReUILmcjNsjFC8IoapBEMsQpyvEAwoMmQynmDHAz5bIRhQPIQfvibeomQYwh36MCOohpj+xVbhpy+QPXfLNGetzP7g0Pvg014mDI0j+CMjMzKsVt+vlqv7lVpkHbsHn74pwtOwx8JWlEa93Gw2y/sVU43GArxqHBF2rs0QWSuGoWlKvZnXtOCp4I9yQw1tAwOq54KtdMNJqPJWwi/TtEI17CokoBLb7/UZIlH+3yAAqpWmtvCkVubGMXiAwSPhPOgntfG2lfx+0Io5Akf7Hr6tWZ9hCayfHgQBQt3Xlh+uqIFt4DfAAdkJWqkvt6KVA8fqA+j5iywYwqH0lClqdYVgXgsowlMIDDTBUF8lGLTSNJGhQARTCYZgiDh3AA9yNFRswQBwZqsVqBWtrDo96AM3mTAEI0fPAU3L5wsm80UJPjClBn+pVrcn0Ce6v4/hk408rlXFGU5saKRHeHeGPXiMcggz7AYuxFrRqk/QR7IZpeA8/IkuTNo/YBQEcI/NZQ4L3DlkwrAExlIff5ERPbXygtUebQQJ4cSZosSKD66HLbSq2KBVAa84Z9BKMWslD645mayHLrx/usOGaZFWWM3hmabaRL/V+gL3ShYMLTCo5R6RGRFTUP6KYLVHFhwOeG7kJlnsS7Ua/BEkVyLswmdTLePmIucKDbxPJBj+gE9fWmDVkiWa/zxFV3sOFz6/7P7IhiFyMtEBii3EU1SBC9HVHs0inGbDsA5PxIDiSibBEiY41BUTt9b6Cn9qggdfKYY2tsA9tt+ENqN4J5xkdExitcfO5Tw7G4b7+DbM+1qa+9EoFgSDTIB+8OaLfmPeQPLNPsMHtsxJVBneBEdo7V2WQri74vxyXdskVns0Czex8egrw7BpOlROItd67HQ6N4myUxNHUfDVHtPZDRyTULpKMNRqDnx+tjaQV/sZkKUi2KmjryKSDCsK7cSk6Dom5ULsgLZLboKkMjPYkcKa8FSbdiGSRXhyiE2QZIYUO/laj+A4mIREIM278JIz0MlPSTEMhql9lhbBLidIrYVYtvLMJgepnA/LKnbOm5jfT5un0ogdKbbaBysoOUglazFqeFIpDp438E+H/X7/5/nT2NGd8BSfMBWp3HlgJtkvkgy1qqqYSuJ46nVP7w9Huq4zDsdxpvliKszkXfBrusH3Ezt1aYbciYr9nIye3ztzmGMD2UHKF4gLn236Y9IMuRMVB0lbQnjo2cwxAXYKHUfzJTCQHvLoRLtQ1odaI8zMim3NvOFzNN9gEGs9nOjyDnkmj3i9T4NhvhlmP3+JUByOVjPzc6i1JrUvgSpSvF+cIHFqlQ5DjSf1FOc5Ntz4z0BiXp2htk9+C5TJ6z7zHQK1gqbDMEwNBuEGrSeZ9vfkbemIGgThWqVSr+/v71er5YJG2gkd8vgOb1CtxNonz7BQ4yabeo8YqQ+Ks8BOqVWq5aY2Q7yNq/s1rxeN+Fr8BUEp1Oo3I8PZyMda6b8OUFWpVKcpfmGsHkT6IxYfndJjqJWjaguTjeH9TU+fV440qvlE5DhWxuhgPO0xtSzQWBqKEq08dZCtjwE/TtjMfXUqXqIWLsVRfzyf0iIE01EFzSkGHEf9pReqJybDL1gKF+trB/2Faj4hgikpu7RmbVa1ZDJ21vNfWd5HJVJLBSjieJ2Eg2C/x+Yzml5AU2eYny4aEUc72FQ743O/64UnvKEDxfobIMhf7L2ufx68f+j6625WYJlIm6FWVdRVHw7CPlcrhTUJlhYOuRd8qCoxm9EsGAYjNXDj0jz0nsNlmXorIrFSuDj4yedhoiGfppZba/5YWi/C+ru4zT+OInT25I9/JJrSKTI0SjtLsgJfFw95QHtwHj2Xe9xJIldPj6F7uXzm7vEXwbU9aLVxGUbnUlAEnE+PoVE8WNmX3rP1CRrFO+qNzDuIFfanzNCwVpMmXbDAUAyWFZfP6YhekJEOQ+sSOGSY2PEv4Ehz7uqAWAGmCM+EoQtpeHm9tymw91/lV/oicq9CzhNT5KfB0AWnzL/2OpPQcIsnQvw4xTsRiikwhJXAgQvhGlHKGKvU3kuiuo1XAafB0IIrtc+CWZjghl4jYGe9XCXV6R3FU5RmaBTATvfhaui3nCzLDVEqFgu3Xy/WSEa24q8flWZYgrv90KbPoo2iu3Py9eq///7bOz7uPLbWlWpex16rIMsQ0SQMYjJC1oucbvQVhA4hFYYGosuaOGRSz9qRk9cu4iXORDmGiKany6gKSmzurgeiPDgFhpgc/552oaS0eQkxgnw5LTdym4Wnky7ESg7WRIsW5EsxxArp6CJYWY37Cr6STpRjiOyvnm0qkCbTuHsD3/cfyHl7kxlDrCo2WO2pml36jvS3OB2zCKM+sR9Aa8tlGeKFdJQLE1zUMlTm54cmY/fo4CbvN5HRciMf7ZJ1zDGXwC/AO3yTUTWZipV9eNTbsIyWGxYG4PK1EKIV7bmWupCRi1IGDKm7zn3JRssNSyxzHjOVFGYhr3Jbhqn78MMXxDCV0XLDAW5ISV6wblnF4bIHQ4pIMWQrGy03MqFG1GovvBYOpwkdVWlUKpWGOdWr20hlC3GpgoRmBp6Gwbs9sdrjl2AsQQnzHUqlzHXcmpZv7kdydR2ONsRETF3LfUgtFYYh6MLT0IX1hYSOplU5R8SJV5kou8AZ1bVNYqlAr9JYxjgIM+ZSOkArNNAyOuISHgn9IbhynzLq8AIJTivg8dgE8i8VVYHDaSb6Q/jVsOcQ5WnQyxZYZDxg8FGrVlEdUBT4G7XcE0q+Al3ZA7YS7GyRjFUNLi0f/D6GY5tYKqCDVTD0+DrWT2UbVDr/Ri33mFJHQjMXZsiwNrQfoA+zYQjOwwnhQvDUCuynh3/QfvrnN85DUK/aw5deWPLig7RdlKEL7r4zuRcDXg/xPTCijoT10vguDC7Zz0bLDeoQYI1s+Dy82v8L/it6zosc0PYz0XLDiiD0RAGu1M454L+2sKGAvJsQk0Pi3QKu0cfU6sglrANEV/QVdgr2QvOcxbuF9gPeRcPbfMOAXegjL7XIhZbIDWpeRlpu+EUGtg07f+rpiPztETrnxa5G9zNiiNxjeAN8CL3z++wHpg0DRO8l7CrK+4zU6vDVVgHFwtJANVCCA1ZnmMCvY1mCreRGWWm5Mdtat4v9b7h59IbSc1bG1W9BM69rj1Fqo60MGHG4J3ESVSVkwJ2XkmuEsEqFK/zFfmTmzWf8vx/v8iXXClByX4gjrJ6TlZYbuQsxxM3V7aVmtF8OOsRDvl7TasjRS4TW9d7BycnVBVWB4qlU3Y6M0llhQ/LDnheXnh/bFa1ij+mHYjFkxAGtnJYbueJPGA+6WtWqqqSY2BuZWWm5q6qkRnZsK818U5F0Yp+pVcJKGYZN1WQyTjxlSiNopqGI3+QGwGOmSpUmSWm5G4qMID8YXTyFo+2rUqO959AVkFI54Cp2uCdmGot0S01FYet3lK8r5CCVY1gwFVNdt3CEF4GHEUKrKOt3VFcNbCDr5+S03HVVcX6taRqvII6WsaaKJpVi8cuJq0OWq6fhwrz1RlioxJjOHy4mtomdDYFQ7kCXQEpquQMnYvcz0wR/OQsS3iZXhAtpiZfQ1+P1KrKVezxFFLO1gcAVe68FtvyGWoURNxYhiG5ljrFQVq3OBflm4oU/lJkvCEAjRXgCXX+IUJoaW2ktreUONWvYizqM7pmzJBYKO0pxnhPF5fBy+/hKa+kK2kjozH6Jx8IH1V4xLeooWxG/RqQbjYN4qbN8nXekAnZUX9C0/lSFvdRMpAgXHu9+VItCX9ySEsNohCmm/iQSDAdnUxXo8htdc1oWdCbyojETq4vIHdLQctejOgmH9WN/h7Q3U/GupAdnWmJbf4ob8F6fRaUoQpqjVLTc9ZlcfTQkf3nm3pkVyQD5z7lc2mH3FEdvOGIC99mkynBOkdee9ZBR5vkTZ36xCZjgnVM0HefQR7pqcK/OxM6CqrGUtNzVuZTbYaPzFfO6pxN7/sszKlSDELbSNGc9FTw9OV32pOffj9i8l0QlRymp86KfP5iR1PWzXv/0YdDtdgf+8OdE1dmCCruBB/hCY0ERznR18nPoh608nPZ7Z/rC7Tbqci1K1gwD417l6jxeOIzpEZZvTCKvW4kug3ll6cxbYc5iJZ9aEVYcpajlnsrVSSz9ZgXQyuvdBUQrCcTqaSqdtXw9hqNaE7BMq8ZwVJV6kutD0lSrc44mbl3AT8gyLU9xVM2E92ukypDXnlUbKmReWGYoapmWL1fA4cCvf0l6PUPKDLl1zWpFef0ZpPAuKLOS9F6awJEVU33bTHR5T1KDUmeYDwtCm9V6pdKo1WqNSn2f35i0VjPN8n49bIVfKVVtity4tIosGE7tE78IKtNWMmP4x2DLcMvwz8eW4Zbhn48tw7+eIfrbRpsDI08yvPwLGNJ6wNu/gCH9Gz7EL0VtCpBf3prh81/A8DPJ8OM3seum/lxY3z6SDD98Jn+Z/c+H0f78gWb44ftGLxhG/vuHOIYfv7c3d6Ba7e8fYxl++PD5m8urYd/b2oQILHbdb585AZLh//gTHz+f312+t8WJcXl3/vkjN/9/JMPQiZzkJmJqO00wcuJGI8aFcyduLuII5rz3tlASAuUTm01RrFhuc+di7BzccI7i/LbYYostttjiLf4Pe9rnVCOINeIAAAAASUVORK5CYII=;" vertex="1" parent="1">
          <mxGeometry x="960" y="-827.75" width="60" height="60" as="geometry" />
        </mxCell>
        <mxCell id="66kBm97SX3_s6F8QqALg-67" value="&lt;b&gt;Localhost(port--80:80)&lt;/b&gt;" style="text;html=1;align=center;verticalAlign=middle;resizable=0;points=[];autosize=1;strokeColor=none;fillColor=none;" vertex="1" parent="1">
          <mxGeometry x="915" y="-770" width="150" height="30" as="geometry" />
        </mxCell>
        <mxCell id="66kBm97SX3_s6F8QqALg-71" value="" style="dashed=0;outlineConnect=0;html=1;align=center;labelPosition=center;verticalLabelPosition=bottom;verticalAlign=top;shape=mxgraph.weblogos.chrome" vertex="1" parent="1">
          <mxGeometry x="1010" y="-846.5" width="28.77" height="29" as="geometry" />
        </mxCell>
      </root>
    </mxGraphModel>
  </diagram>
</mxfile>
